<?xml version="1.0" encoding="UTF-8"?>
<!DOCTYPE svg PUBLIC "-//W3C//DTD SVG 1.1//EN" "http://www.w3.org/Graphics/SVG/1.1/DTD/svg11.dtd">
<!-- Creator: CorelDRAW 2021 (64-Bit) -->
<svg xmlns="http://www.w3.org/2000/svg" xml:space="preserve" width="23.4839mm" height="20.0659mm" version="1.1" style="shape-rendering:geometricPrecision; text-rendering:geometricPrecision; image-rendering:optimizeQuality; fill-rule:evenodd; clip-rule:evenodd"
viewBox="0 0 5.7169 4.8848"
 xmlns:xlink="http://www.w3.org/1999/xlink"
 xmlns:xodm="http://www.corel.com/coreldraw/odm/2003">
 <defs>
  <style type="text/css">
   <![CDATA[
    .fil12 {fill:#FEFEFE}
    .fil0 {fill:#009441}
    .fil11 {fill:#2B2A29;fill-rule:nonzero}
    .fil3 {fill:#EF7F1A;fill-rule:nonzero}
    .fil10 {fill:#E5097F;fill-rule:nonzero}
    .fil4 {fill:#E5097F;fill-rule:nonzero}
    .fil2 {fill:#E31E24;fill-rule:nonzero}
    .fil7 {fill:#D31880;fill-rule:nonzero}
    .fil8 {fill:#A42725;fill-rule:nonzero}
    .fil6 {fill:#00A0E3;fill-rule:nonzero}
    .fil9 {fill:#009846;fill-rule:nonzero}
    .fil5 {fill:#009846;fill-rule:nonzero}
    .fil1 {fill:#393185;fill-rule:nonzero}
   ]]>
  </style>
 </defs>
 <g id="Layer_x0020_1">
  <metadata id="CorelCorpID_0Corel-Layer"/>
  <g id="_2632476196128">
   <g>
    <g>
     <path class="fil0" d="M2.021 2.8876c-0.7927,-0.0653 -1.4255,-0.5156 -1.7735,-1.6521 0.8792,0.0107 1.5613,0.1939 1.9554,0.629 -0.017,-0.6214 0.1712,-1.2429 0.6594,-1.8644 0.4623,0.5798 0.7048,1.1963 0.6821,1.8569 0.3874,-0.4197 1.0727,-0.5934 1.9251,-0.6291 -0.2867,1.0456 -0.883,1.562 -1.7356,1.6577 0.2172,-0.1365 0.4345,-0.2632 0.6518,-0.3996 -0.2804,0.1036 -0.5609,0.2072 -0.8412,0.3107 0.4396,-0.3713 0.8791,-0.7427 1.3187,-1.1141 -0.5027,0.3562 -1.0054,0.7124 -1.5082,1.0686 0.1465,-0.2931 0.293,-0.5861 0.4396,-0.8792 -0.2122,0.2829 -0.4244,0.5659 -0.6366,0.8488 0.0657,-0.336 0.1313,-0.672 0.1971,-1.008 -0.1314,0.3335 -0.2627,0.6669 -0.3941,1.0004 -0.0328,-0.6796 -0.0657,-1.3591 -0.0985,-2.0387 -0.0253,0.677 -0.0506,1.3541 -0.0758,2.0312 -0.1364,-0.3335 -0.2729,-0.667 -0.4093,-1.0005 0.0707,0.341 0.1415,0.6821 0.2122,1.0232 -0.2071,-0.2704 -0.4143,-0.5407 -0.6215,-0.811 0.1389,0.2804 0.2779,0.5609 0.4168,0.8413 -0.4977,-0.3587 -0.9953,-0.7175 -1.493,-1.0762 0.437,0.3764 0.8741,0.7528 1.3111,1.1293 -0.2905,-0.1112 -0.581,-0.2223 -0.8716,-0.3335 0.2299,0.1364 0.4598,0.2728 0.6897,0.4092l0 0z"/>
     <path class="fil1" d="M0.0316 3.5605c-0.0085,0 -0.0159,-0.0031 -0.0222,-0.0094 -0.0063,-0.0063 -0.0094,-0.0142 -0.0094,-0.0237l0 -0.4608c0,-0.0095 0.0031,-0.0176 0.0094,-0.0241 0.0063,-0.0065 0.0137,-0.0098 0.0222,-0.0098l0.1016 0c0.0085,0 0.0159,0.0033 0.0222,0.0098 0.0063,0.0065 0.0094,0.0146 0.0094,0.0241l0 0.3373 0.207 0c0.0095,0 0.0177,0.003 0.0245,0.009 0.0068,0.006 0.0102,0.0136 0.0102,0.0226l0 0.0949c0,0.0085 -0.0034,0.0158 -0.0102,0.0218 -0.0068,0.006 -0.0149,0.009 -0.0245,0.009l-0.3207 0 -0.0196 -0.0008z"/>
     <path class="fil2" d="M0.646 3.169l0 0.061 0.2123 0c0.008,0 0.0152,0.0031 0.0215,0.0094 0.0063,0.0063 0.0094,0.0142 0.0094,0.0237l0 0.0655c0,0.0085 -0.0031,0.0162 -0.0094,0.023 -0.0063,0.0068 -0.0134,0.0102 -0.0215,0.0102l-0.2123 0 0 0.067 0.2228 0c0.0085,0 0.0159,0.0031 0.0222,0.0094 0.0063,0.0063 0.0094,0.0144 0.0094,0.0245l0 0.0647c0,0.009 -0.0031,0.0169 -0.0094,0.0237 -0.0063,0.0068 -0.0137,0.0102 -0.0222,0.0102l-0.3554 0c-0.0085,0 -0.0159,-0.0034 -0.0222,-0.0102 -0.0063,-0.0068 -0.0094,-0.0147 -0.0094,-0.0237l0 -0.0023 0 -0.0625 0 -0.3268 0 -0.0655c0,-0.0095 0.0031,-0.0174 0.0094,-0.0237 0.0063,-0.0063 0.0137,-0.0094 0.0222,-0.0094l0.3554 0c0.0085,0 0.0159,0.0031 0.0222,0.0094 0.0063,0.0063 0.0094,0.0142 0.0094,0.0237l0 0.0655c0,0.0085 -0.0033,0.0162 -0.0098,0.023 -0.0065,0.0068 -0.0138,0.0102 -0.0218,0.0102l-0.2228 0z"/>
     <path class="fil3" d="M1.0059 3.5281l0 -0.4593c0,-0.0095 0.003,-0.0177 0.009,-0.0245 0.006,-0.0068 0.014,-0.0102 0.0241,-0.0102l0.1032 0c0.009,0 0.0167,0.0034 0.023,0.0102 0.0063,0.0068 0.0094,0.0149 0.0094,0.0245l0 0.4593c0,0.0105 -0.0031,0.0189 -0.0094,0.0252 -0.0063,0.0063 -0.0139,0.0094 -0.023,0.0094l-0.1032 0c-0.01,0 -0.0181,-0.0031 -0.0241,-0.0094 -0.006,-0.0063 -0.009,-0.0147 -0.009,-0.0252z"/>
     <path class="fil4" d="M1.2491 3.4672c0,-0.009 0.0045,-0.0196 0.0136,-0.0316l0.0278 -0.0362c0.008,-0.0115 0.0144,-0.0197 0.0192,-0.0244 0.0047,-0.0048 0.0099,-0.0072 0.0154,-0.0072 0.0045,0 0.01,0.0015 0.0166,0.0045 0.0065,0.003 0.0156,0.008 0.0271,0.0151 0.0015,0.001 0.0143,0.0098 0.0384,0.0263 0.0241,0.0166 0.0542,0.0239 0.0903,0.0218 0.0121,-0.0005 0.0215,-0.0039 0.0282,-0.0102 0.0068,-0.0063 0.0102,-0.0139 0.0102,-0.023 0,-0.0121 -0.006,-0.0231 -0.0181,-0.0331 -0.0121,-0.01 -0.0291,-0.0158 -0.0512,-0.0173l0.0008 0c-0.0442,-0.009 -0.0786,-0.0204 -0.1031,-0.0343 -0.0246,-0.0138 -0.0422,-0.0302 -0.0527,-0.0493 -0.0105,-0.0191 -0.0168,-0.0427 -0.0188,-0.0708 -0.002,-0.0331 0.005,-0.0634 0.0211,-0.0907 0.016,-0.0274 0.0391,-0.0489 0.0693,-0.0648 0.0301,-0.0158 0.0648,-0.0237 0.1039,-0.0237 0.0291,0 0.0582,0.0043 0.0873,0.0128 0.0241,0.0065 0.046,0.0152 0.0659,0.026 0.0198,0.0108 0.0355,0.0232 0.0471,0.0373 0.007,0.007 0.0105,0.0136 0.0105,0.0196 0,0.005 -0.0019,0.0104 -0.0056,0.0162 -0.0038,0.0058 -0.0102,0.0137 -0.0192,0.0237l-0.0218 0.0233c-0.007,0.0075 -0.0124,0.0127 -0.0162,0.0154 -0.0037,0.0028 -0.0074,0.0041 -0.0109,0.0041 -0.0035,0 -0.008,-0.0015 -0.0136,-0.0045 -0.0055,-0.003 -0.0109,-0.0061 -0.0162,-0.0094 -0.0053,-0.0033 -0.0099,-0.0062 -0.0139,-0.0087 -0.0346,-0.0221 -0.065,-0.0331 -0.0911,-0.0331 -0.0161,0 -0.0288,0.0039 -0.038,0.0117 -0.0093,0.0078 -0.0139,0.0172 -0.0139,0.0282 0,0.011 0.0045,0.0209 0.0135,0.0297 0.0091,0.0088 0.0218,0.0144 0.0384,0.0169 0.0718,0.0111 0.1253,0.0324 0.1607,0.064 0.0354,0.0316 0.0531,0.0677 0.0531,0.1084 0,0.0301 -0.0094,0.0591 -0.0282,0.087 -0.0188,0.0278 -0.0449,0.0504 -0.0783,0.0677 -0.0334,0.0173 -0.0706,0.026 -0.1118,0.026 -0.0673,0 -0.1348,-0.0236 -0.2025,-0.0708 -0.0221,-0.0151 -0.0331,-0.0294 -0.0331,-0.0429z"/>
     <path class="fil5" d="M1.7912 3.3188l-0.0008 -0.262c0,-0.0151 0.0085,-0.0226 0.0256,-0.0226l0.0986 0c0.01,0 0.0178,0.002 0.0233,0.006 0.0055,0.004 0.0083,0.0095 0.0083,0.0166l0.003 0.2454c0.0005,0.0326 0.0094,0.0584 0.0267,0.0772 0.0173,0.0188 0.0408,0.0282 0.0704,0.0282 0.0582,0 0.0873,-0.0331 0.0873,-0.0994l0.0015 -0.25c0,-0.0065 0.0031,-0.0122 0.0094,-0.0169 0.0063,-0.0048 0.0137,-0.0072 0.0222,-0.0072l0.1001 0c0.0095,0 0.0169,0.0021 0.0222,0.0064 0.0053,0.0043 0.0077,0.0102 0.0072,0.0177l0 0.1114c0,0.0693 0.0001,0.1124 0.0004,0.1295 0.0002,0.0171 0.0004,0.0261 0.0004,0.0271 0.0005,0.0407 -0.0064,0.0792 -0.0207,0.1156 -0.0143,0.0364 -0.0402,0.0668 -0.0776,0.0911 -0.0374,0.0243 -0.0877,0.0365 -0.151,0.0365 -0.0577,0 -0.1058,-0.0118 -0.1442,-0.0354 -0.0384,-0.0236 -0.0668,-0.0543 -0.0851,-0.0922 -0.0183,-0.0379 -0.0275,-0.0789 -0.0275,-0.1231z"/>
     <path class="fil6" d="M2.6909 3.5161c-0.0055,-0.0341 -0.0169,-0.0578 -0.0343,-0.0711 -0.0173,-0.0133 -0.0388,-0.0212 -0.0644,-0.0237 -0.0035,-0.0005 -0.0078,-0.0007 -0.0128,-0.0007 -0.005,0 -0.0093,0.0005 -0.0128,0.0015l-0.0008 0.0008 0 0.0964c0,0.0095 -0.0009,0.0172 -0.0026,0.023 -0.0018,0.0058 -0.0065,0.0105 -0.0143,0.0143 -0.0078,0.0038 -0.02,0.0056 -0.0365,0.0056l-0.07 0c-0.0156,0.0005 -0.0279,-0.0024 -0.0369,-0.0087 -0.009,-0.0063 -0.0136,-0.0149 -0.0136,-0.026l0.0008 -0.2033 0 -0.262c0,-0.0075 0.0038,-0.0142 0.0113,-0.02 0.0075,-0.0058 0.0166,-0.0086 0.0271,-0.0086l0.1709 0c0.0753,-0.0005 0.131,0.0122 0.1671,0.038 0.0362,0.0258 0.0557,0.0664 0.0587,0.1216 0.0005,0.005 0.0006,0.0089 0.0004,0.0117 -0.0002,0.0028 -0.0004,0.0051 -0.0004,0.0072l0 0.0158c-0.0025,0.0291 -0.0102,0.0522 -0.023,0.0693 -0.0128,0.0171 -0.0297,0.0329 -0.0508,0.0474l0.0008 0.0008c0.0246,0.0121 0.0442,0.0294 0.0587,0.0519 0.0146,0.0226 0.0245,0.0462 0.0297,0.0708 0.0053,0.0246 0.0074,0.0467 0.0064,0.0663 0,0.0085 -0.003,0.0153 -0.009,0.0203 -0.006,0.005 -0.0146,0.0075 -0.0256,0.0075l-0.0918 0c-0.013,0 -0.0215,-0.0033 -0.0252,-0.0098 -0.0038,-0.0065 -0.0058,-0.0134 -0.006,-0.0207 -0.0002,-0.0073 -0.0006,-0.0124 -0.0011,-0.0154zm-0.1122 -0.2356c0.0231,0 0.0443,-0.0041 0.0636,-0.0124 0.0193,-0.0083 0.029,-0.0275 0.029,-0.0576 0,-0.0211 -0.0064,-0.0371 -0.0192,-0.0482 -0.0128,-0.011 -0.0313,-0.0166 -0.0553,-0.0166l-0.0617 0 0 0.0075 0 0.1272 0.0053 0 0.0023 0 0.0362 0z"/>
     <path class="fil7" d="M3.0915 3.169l0 0.061 0.2123 0c0.008,0 0.0152,0.0031 0.0214,0.0094 0.0063,0.0063 0.0094,0.0142 0.0094,0.0237l0 0.0655c0,0.0085 -0.0031,0.0162 -0.0094,0.023 -0.0063,0.0068 -0.0134,0.0102 -0.0214,0.0102l-0.2123 0 0 0.067 0.2229 0c0.0085,0 0.0159,0.0031 0.0222,0.0094 0.0063,0.0063 0.0094,0.0144 0.0094,0.0245l0 0.0647c0,0.009 -0.0031,0.0169 -0.0094,0.0237 -0.0063,0.0068 -0.0137,0.0102 -0.0222,0.0102l-0.3554 0c-0.0085,0 -0.0159,-0.0034 -0.0222,-0.0102 -0.0063,-0.0068 -0.0094,-0.0147 -0.0094,-0.0237l0 -0.0023 0 -0.0625 0 -0.3268 0 -0.0655c0,-0.0095 0.0031,-0.0174 0.0094,-0.0237 0.0063,-0.0063 0.0137,-0.0094 0.0222,-0.0094l0.3554 0c0.0085,0 0.0159,0.0031 0.0222,0.0094 0.0063,0.0063 0.0094,0.0142 0.0094,0.0237l0 0.0655c0,0.0085 -0.0033,0.0162 -0.0098,0.023 -0.0065,0.0068 -0.0138,0.0102 -0.0218,0.0102l-0.2229 0z"/>
     <path class="fil2" d="M3.6471 3.2963c0,-0.0497 0.0127,-0.0956 0.038,-0.1378 0.0253,-0.0422 0.0597,-0.0757 0.1031,-0.1005 0.0434,-0.0249 0.0905,-0.0373 0.1412,-0.0373 0.0512,0 0.0991,0.013 0.1438,0.0391 0.009,0.005 0.0136,0.0123 0.0136,0.0218 0,0.0065 -0.0028,0.013 -0.0083,0.0196l-0.0738 0.0813c-0.005,0.005 -0.0108,0.0075 -0.0173,0.0075 -0.005,0 -0.0095,-0.001 -0.0135,-0.003 -0.0136,-0.006 -0.0286,-0.009 -0.0452,-0.009 -0.0216,0 -0.0415,0.0051 -0.0599,0.0154 -0.0183,0.0103 -0.0327,0.0242 -0.0433,0.0418 -0.0105,0.0176 -0.0158,0.0369 -0.0158,0.058 0,0.0206 0.0054,0.0398 0.0162,0.0576 0.0108,0.0178 0.0252,0.032 0.0433,0.0425 0.0181,0.0105 0.0379,0.0158 0.0595,0.0158 0.0156,0 0.0319,-0.0035 0.049,-0.0105 0.004,-0.002 0.0083,-0.003 0.0128,-0.003 0.0065,0 0.0121,0.0023 0.0166,0.0068l0.0828 0.0813c0.006,0.006 0.009,0.0128 0.009,0.0203 0,0.008 -0.0038,0.0148 -0.0113,0.0204 -0.0507,0.0321 -0.1034,0.0482 -0.1581,0.0482 -0.0507,0 -0.0977,-0.0124 -0.1412,-0.0373 -0.0434,-0.0249 -0.0778,-0.0585 -0.1031,-0.1009 -0.0253,-0.0424 -0.038,-0.0885 -0.038,-0.1382z"/>
     <path class="fil8" d="M4.2073 3.5605c-0.0085,0 -0.0159,-0.0031 -0.0222,-0.0094 -0.0063,-0.0063 -0.0094,-0.0142 -0.0094,-0.0237l0 -0.4608c0,-0.0095 0.0031,-0.0176 0.0094,-0.0241 0.0063,-0.0065 0.0137,-0.0098 0.0222,-0.0098l0.1016 0c0.0085,0 0.0159,0.0033 0.0222,0.0098 0.0063,0.0065 0.0094,0.0146 0.0094,0.0241l0 0.3373 0.2071 0c0.0095,0 0.0177,0.003 0.0244,0.009 0.0068,0.006 0.0102,0.0136 0.0102,0.0226l0 0.0949c0,0.0085 -0.0034,0.0158 -0.0102,0.0218 -0.0068,0.006 -0.0149,0.009 -0.0244,0.009l-0.3208 0 -0.0196 -0.0008z"/>
     <path class="fil9" d="M4.6613 3.3188l-0.0008 -0.262c0,-0.0151 0.0085,-0.0226 0.0256,-0.0226l0.0986 0c0.0101,0 0.0178,0.002 0.0233,0.006 0.0055,0.004 0.0083,0.0095 0.0083,0.0166l0.003 0.2454c0.0005,0.0326 0.0094,0.0584 0.0267,0.0772 0.0173,0.0188 0.0408,0.0282 0.0704,0.0282 0.0582,0 0.0873,-0.0331 0.0873,-0.0994l0.0015 -0.25c0,-0.0065 0.0031,-0.0122 0.0094,-0.0169 0.0063,-0.0048 0.0137,-0.0072 0.0222,-0.0072l0.1001 0c0.0095,0 0.0169,0.0021 0.0222,0.0064 0.0053,0.0043 0.0076,0.0102 0.0072,0.0177l0 0.1114c0,0.0693 0.0001,0.1124 0.0004,0.1295 0.0002,0.0171 0.0004,0.0261 0.0004,0.0271 0.0005,0.0407 -0.0064,0.0792 -0.0207,0.1156 -0.0143,0.0364 -0.0401,0.0668 -0.0776,0.0911 -0.0374,0.0243 -0.0877,0.0365 -0.151,0.0365 -0.0577,0 -0.1058,-0.0118 -0.1442,-0.0354 -0.0384,-0.0236 -0.0668,-0.0543 -0.0851,-0.0922 -0.0183,-0.0379 -0.0275,-0.0789 -0.0275,-0.1231z"/>
     <path class="fil10" d="M5.2606 3.5485l0 -0.2801 0 -0.2198c0,-0.0055 0.0025,-0.01 0.0075,-0.0135 0.005,-0.0035 0.0115,-0.0053 0.0196,-0.0053l0.1107 0 0.0534 -0.0015c0.0577,0 0.1028,0.0068 0.1352,0.0203 0.0324,0.0136 0.0545,0.0319 0.0663,0.055 0.0118,0.0231 0.0177,0.051 0.0177,0.0836 0,0.0341 -0.0093,0.0637 -0.0279,0.0888 0.0266,0.0146 0.0455,0.0315 0.0568,0.0508 0.0113,0.0193 0.0169,0.0443 0.0169,0.0749 0,0.008 -0.0002,0.0143 -0.0008,0.0188 -0.0015,0.0271 -0.0073,0.0513 -0.0173,0.0726 -0.0101,0.0213 -0.0301,0.0395 -0.0602,0.0546 -0.0301,0.0151 -0.0733,0.0226 -0.1295,0.0226l-0.2168 0c-0.009,0 -0.0166,-0.0021 -0.0226,-0.0064 -0.006,-0.0043 -0.009,-0.0094 -0.009,-0.0154zm0.2289 -0.0918c0.0221,-0.001 0.0387,-0.0065 0.0497,-0.0166 0.0111,-0.0101 0.0166,-0.0236 0.0166,-0.0407 0,-0.017 -0.006,-0.0305 -0.0181,-0.0403 -0.0121,-0.0098 -0.0326,-0.0149 -0.0617,-0.0154l-0.058 0c-0.0075,0 -0.0113,0.0018 -0.0113,0.0053l0 0.1009c0,0.002 0.001,0.0036 0.003,0.0049 0.002,0.0012 0.0047,0.0019 0.0083,0.0019l0.0715 0zm-0.0188 -0.2161c0.0176,-0.0005 0.031,-0.0053 0.0403,-0.0143 0.0093,-0.009 0.0139,-0.0203 0.0139,-0.0339 0,-0.0316 -0.0211,-0.0484 -0.0632,-0.0504l-0.0482 0c-0.002,0 -0.0039,0.0008 -0.0056,0.0023 -0.0018,0.0015 -0.0026,0.0033 -0.0026,0.0053l0 0.0851c0,0.002 0.0008,0.0035 0.0023,0.0045 0.0015,0.001 0.0035,0.0015 0.006,0.0015l0.0572 0z"/>
     <path class="fil11" d="M1.3756 3.7455l0 0.4638c0,0.009 -0.003,0.0166 -0.009,0.0226 -0.006,0.006 -0.0133,0.009 -0.0218,0.009l-0.1092 0c-0.008,0 -0.0153,-0.0033 -0.0218,-0.0098 -0.0065,-0.0065 -0.0098,-0.0138 -0.0098,-0.0218l0 -0.1747 -0.1935 0 0 0.1747c0,0.008 -0.0031,0.0153 -0.0094,0.0218 -0.0063,0.0065 -0.0137,0.0098 -0.0222,0.0098l-0.1092 0c-0.008,0 -0.0153,-0.0033 -0.0218,-0.0098 -0.0065,-0.0065 -0.0098,-0.0138 -0.0098,-0.0218l0 -0.4638c0,-0.0085 0.003,-0.0158 0.009,-0.0218 0.006,-0.006 0.0135,-0.009 0.0226,-0.009l0.1092 0c0.009,0 0.0166,0.003 0.0226,0.009 0.006,0.006 0.009,0.0133 0.009,0.0218l0 0.1596 0.1935 0 0 -0.1596c0,-0.0085 0.003,-0.0158 0.0091,-0.0218 0.006,-0.006 0.0135,-0.009 0.0226,-0.009l0.1092 0c0.0095,0 0.0171,0.0028 0.0226,0.0083 0.0055,0.0055 0.0083,0.013 0.0083,0.0226zm0.0678 0.2349c0,-0.0497 0.0124,-0.0956 0.0372,-0.1378 0.0249,-0.0422 0.0584,-0.0757 0.1005,-0.1005 0.0422,-0.0248 0.0881,-0.0372 0.1378,-0.0372 0.0497,0 0.0957,0.0124 0.1382,0.0372 0.0424,0.0249 0.0761,0.0584 0.1009,0.1005 0.0248,0.0422 0.0372,0.0881 0.0372,0.1378 0,0.0497 -0.0124,0.0956 -0.0372,0.1378 -0.0249,0.0422 -0.0585,0.0757 -0.1009,0.1005 -0.0424,0.0248 -0.0885,0.0373 -0.1382,0.0373 -0.0497,0 -0.0956,-0.0124 -0.1378,-0.0373 -0.0422,-0.0249 -0.0757,-0.0584 -0.1005,-0.1005 -0.0248,-0.0422 -0.0372,-0.0881 -0.0372,-0.1378zm0.393 -0.0068c0,-0.0216 -0.0055,-0.0414 -0.0166,-0.0595 -0.011,-0.0181 -0.0257,-0.0325 -0.044,-0.0433 -0.0183,-0.0108 -0.038,-0.0162 -0.0591,-0.0162 -0.0221,0 -0.0423,0.0054 -0.0606,0.0162 -0.0183,0.0108 -0.0328,0.0252 -0.0433,0.0433 -0.0105,0.0181 -0.0158,0.0379 -0.0158,0.0595 0,0.0216 0.0053,0.0415 0.0158,0.0598 0.0105,0.0183 0.025,0.0329 0.0433,0.0437 0.0183,0.0108 0.0385,0.0162 0.0606,0.0162 0.0211,0 0.0408,-0.0054 0.0591,-0.0162 0.0183,-0.0108 0.033,-0.0253 0.044,-0.0437 0.0111,-0.0183 0.0166,-0.0383 0.0166,-0.0598zm0.2507 0.2665c-0.0085,0 -0.0159,-0.0031 -0.0222,-0.0094 -0.0063,-0.0063 -0.0094,-0.0142 -0.0094,-0.0237l0 -0.4608c0,-0.0095 0.0031,-0.0176 0.0094,-0.0241 0.0063,-0.0065 0.0137,-0.0098 0.0222,-0.0098l0.1016 0c0.0085,0 0.0159,0.0033 0.0222,0.0098 0.0063,0.0065 0.0094,0.0146 0.0094,0.0241l0 0.3373 0.207 0c0.0095,0 0.0177,0.003 0.0245,0.009 0.0068,0.006 0.0102,0.0136 0.0102,0.0226l0 0.0949c0,0.0085 -0.0034,0.0158 -0.0102,0.0218 -0.0068,0.006 -0.0149,0.009 -0.0245,0.009l-0.3207 0 -0.0196 -0.0008zm0.4653 -0.0324l0 -0.4593c0,-0.0095 0.003,-0.0177 0.009,-0.0245 0.006,-0.0068 0.014,-0.0102 0.0241,-0.0102l0.1031 0c0.009,0 0.0167,0.0034 0.023,0.0102 0.0063,0.0068 0.0094,0.0149 0.0094,0.0245l0 0.4593c0,0.0105 -0.0031,0.0189 -0.0094,0.0252 -0.0063,0.0063 -0.0139,0.0094 -0.023,0.0094l-0.1031 0c-0.0101,0 -0.0181,-0.0031 -0.0241,-0.0094 -0.006,-0.0063 -0.009,-0.0147 -0.009,-0.0252zm0.2816 0l0 -0.4608c0,-0.009 0.0033,-0.0168 0.0098,-0.0233 0.0065,-0.0065 0.0143,-0.0098 0.0233,-0.0098l0.2033 0c0.0477,0 0.0925,0.0119 0.1344,0.0358 0.0419,0.0238 0.0753,0.056 0.1001,0.0964 0.0249,0.0404 0.0373,0.0842 0.0373,0.1314 0,0.0472 -0.0125,0.091 -0.0376,0.1314 -0.0251,0.0404 -0.0587,0.0725 -0.1009,0.0964 -0.0421,0.0238 -0.0871,0.0358 -0.1348,0.0358l-0.2018 0c-0.009,0 -0.0168,-0.0033 -0.0233,-0.0098 -0.0065,-0.0065 -0.0098,-0.0143 -0.0098,-0.0233zm0.2379 -0.1288c0.0166,0 0.032,-0.0047 0.0463,-0.0143 0.0143,-0.0095 0.0259,-0.0227 0.0346,-0.0395 0.0088,-0.0168 0.0132,-0.0352 0.0132,-0.0553 0,-0.0196 -0.0043,-0.0376 -0.0128,-0.0542 -0.0085,-0.0166 -0.0199,-0.0297 -0.0343,-0.0395 -0.0143,-0.0098 -0.0297,-0.0147 -0.0463,-0.0147l-0.07 0c-0.0035,0 -0.0064,0.0012 -0.0087,0.0037 -0.0023,0.0025 -0.0034,0.0058 -0.0034,0.0098l0 0.1905c0,0.004 0.0011,0.0073 0.0034,0.0098 0.0023,0.0025 0.0052,0.0037 0.0087,0.0037l0.0693 0zm0.2876 0.1318c0,-0.0085 0.0014,-0.0169 0.0041,-0.0252 0.0028,-0.0083 0.0044,-0.0129 0.0049,-0.0139l0.1671 -0.4239c0.0045,-0.0105 0.0111,-0.0187 0.0199,-0.0245 0.0088,-0.0058 0.0192,-0.0089 0.0313,-0.0094l0.0617 0 0.0467 0c0.013,0.0005 0.0239,0.004 0.0324,0.0105 0.0085,0.0065 0.0143,0.0143 0.0173,0.0233l0.1686 0.4239c0.0005,0.0025 0.002,0.0076 0.0045,0.0154 0.0025,0.0078 0.0038,0.0152 0.0038,0.0222 0,0.0181 -0.0101,0.0286 -0.0301,0.0316l-0.1031 0c-0.0105,0 -0.0195,-0.0019 -0.0267,-0.0056 -0.0073,-0.0037 -0.0119,-0.0092 -0.0139,-0.0162l-0.0233 -0.0753 -0.1679 0 -0.0233 0.0753c-0.002,0.007 -0.0065,0.0124 -0.0136,0.0162 -0.007,0.0038 -0.0158,0.0056 -0.0263,0.0056l-0.1047 0c-0.0196,-0.003 -0.0294,-0.013 -0.0294,-0.0301zm0.2891 -0.1942l0.0489 0 -0.0595 -0.1769 -0.0587 0.1769 0.0693 0zm0.402 0.1912l0.0015 -0.2349 -0.1837 -0.2214c-0.0035,-0.004 -0.0053,-0.0085 -0.0053,-0.0136 0,-0.006 0.0024,-0.0113 0.0072,-0.0158 0.0048,-0.0045 0.0107,-0.007 0.0177,-0.0075l0.1513 0.0007c0.004,0 0.0082,0.0008 0.0124,0.0023 0.0043,0.0015 0.0076,0.0035 0.0102,0.006l0.0798 0.1039 0.0768 -0.1039c0.002,-0.0025 0.0053,-0.0045 0.0098,-0.006 0.0045,-0.0015 0.0088,-0.0023 0.0128,-0.0023l0.1513 -0.0007c0.007,0.0005 0.0128,0.003 0.0173,0.0075 0.0045,0.0045 0.0068,0.0098 0.0068,0.0158 0,0.0045 -0.0015,0.009 -0.0045,0.0136l-0.1799 0.2206 -0.0023 0.2356c0,0.009 -0.0034,0.0168 -0.0102,0.0233 -0.0068,0.0065 -0.0144,0.0098 -0.023,0.0098l-0.1129 0c-0.0085,0 -0.0162,-0.0033 -0.023,-0.0098 -0.0068,-0.0065 -0.0102,-0.0143 -0.0102,-0.0233zm0.3727 -0.061c0,-0.009 0.0045,-0.0196 0.0135,-0.0316l0.0279 -0.0362c0.008,-0.0115 0.0144,-0.0197 0.0192,-0.0244 0.0048,-0.0048 0.0099,-0.0072 0.0154,-0.0072 0.0045,0 0.0101,0.0015 0.0166,0.0045 0.0065,0.003 0.0156,0.008 0.0271,0.0151 0.0015,0.001 0.0143,0.0098 0.0384,0.0263 0.0241,0.0166 0.0542,0.0239 0.0904,0.0218 0.0121,-0.0005 0.0214,-0.0039 0.0282,-0.0102 0.0068,-0.0063 0.0102,-0.0139 0.0102,-0.023 0,-0.0121 -0.006,-0.0231 -0.0181,-0.0331 -0.0121,-0.01 -0.0291,-0.0158 -0.0512,-0.0173l0.0007 0c-0.0442,-0.009 -0.0785,-0.0204 -0.1031,-0.0343 -0.0246,-0.0138 -0.0421,-0.0302 -0.0527,-0.0493 -0.0105,-0.0191 -0.0168,-0.0427 -0.0188,-0.0708 -0.002,-0.0331 0.005,-0.0634 0.0211,-0.0907 0.0161,-0.0274 0.0392,-0.0489 0.0693,-0.0648 0.0301,-0.0158 0.0647,-0.0237 0.1039,-0.0237 0.0291,0 0.0582,0.0043 0.0873,0.0128 0.0241,0.0065 0.0461,0.0152 0.0659,0.026 0.0198,0.0108 0.0355,0.0232 0.047,0.0373 0.007,0.007 0.0105,0.0136 0.0105,0.0196 0,0.005 -0.0019,0.0104 -0.0056,0.0162 -0.0038,0.0058 -0.0102,0.0137 -0.0192,0.0237l-0.0218 0.0233c-0.007,0.0075 -0.0124,0.0127 -0.0162,0.0154 -0.0038,0.0028 -0.0074,0.0041 -0.0109,0.0041 -0.0035,0 -0.008,-0.0015 -0.0136,-0.0045 -0.0055,-0.003 -0.0109,-0.0061 -0.0162,-0.0094 -0.0053,-0.0033 -0.0099,-0.0062 -0.0139,-0.0087 -0.0346,-0.0221 -0.065,-0.0331 -0.0911,-0.0331 -0.016,0 -0.0287,0.0039 -0.038,0.0117 -0.0093,0.0078 -0.0139,0.0172 -0.0139,0.0282 0,0.011 0.0045,0.0209 0.0136,0.0297 0.009,0.0088 0.0218,0.0144 0.0384,0.0169 0.0718,0.0111 0.1254,0.0324 0.1608,0.064 0.0354,0.0316 0.0531,0.0677 0.0531,0.1084 0,0.0301 -0.0094,0.0591 -0.0282,0.087 -0.0188,0.0278 -0.0449,0.0504 -0.0783,0.0677 -0.0334,0.0173 -0.0706,0.026 -0.1118,0.026 -0.0673,0 -0.1348,-0.0236 -0.2025,-0.0708 -0.0221,-0.0151 -0.0331,-0.0294 -0.0331,-0.0429z"/>
    </g>
    <path class="fil12" d="M2.8177 0.6927c-0.1123,0.0208 -0.2246,0.0415 -0.337,0.0623 0.0036,-0.0201 0.0071,-0.0403 0.0107,-0.0604 0.1063,-0.0599 0.21,-0.1227 0.3163,-0.1826 -0.0004,-0.0721 0.0015,-0.1308 0.0011,-0.2028 0.0045,-0.0561 0.1084,-0.066 0.1065,0.0285 0.0006,0.0575 -0.0033,0.1126 -0.0027,0.1701 0.1041,0.0613 0.211,0.1183 0.3151,0.1796 0.0036,0.0225 0.0047,0.0426 0.0083,0.0651 -0.1085,-0.0241 -0.2175,-0.0414 -0.3261,-0.0654 -0.0029,0.0588 -0.0059,0.1176 -0.0088,0.1763 0.0418,0.0286 0.0836,0.0573 0.1254,0.0859 -0.0021,0.0164 -0.0042,0.0328 -0.0063,0.0492 -0.1823,-0.0435 -0.151,-0.0424 -0.3333,-0.0027 0.0032,-0.017 0.0064,-0.0341 0.0095,-0.0511 0.0393,-0.027 0.0787,-0.0541 0.118,-0.0811 0.0011,-0.057 0.0021,-0.114 0.0032,-0.171z"/>
   </g>
   <path class="fil11" d="M0.0016 4.7626c0,-0.0111 0.003,-0.0198 0.0088,-0.0264 0.0058,-0.0066 0.0139,-0.0098 0.0241,-0.0098 0.0062,0 0.0112,0.0018 0.015,0.0056 0.0038,0.0037 0.0057,0.0094 0.0057,0.017 0,0.0102 -0.0029,0.0187 -0.0087,0.0255 -0.0057,0.0069 -0.0135,0.0102 -0.0233,0.0102 -0.0066,0 -0.0119,-0.0019 -0.0158,-0.0056 -0.0039,-0.0038 -0.0058,-0.0093 -0.0058,-0.0166zm0.112 0c0,-0.0111 0.0029,-0.0198 0.0088,-0.0264 0.0058,-0.0066 0.0139,-0.0098 0.024,-0.0098 0.0062,0 0.0112,0.0018 0.015,0.0056 0.0038,0.0037 0.0058,0.0094 0.0058,0.017 0,0.0102 -0.0029,0.0187 -0.0087,0.0255 -0.0057,0.0069 -0.0135,0.0102 -0.0233,0.0102 -0.0066,0 -0.0119,-0.0019 -0.0158,-0.0056 -0.0039,-0.0038 -0.0058,-0.0093 -0.0058,-0.0166zm0.112 0c0,-0.0111 0.0029,-0.0198 0.0088,-0.0264 0.0058,-0.0066 0.0139,-0.0098 0.0241,-0.0098 0.0062,0 0.0112,0.0018 0.015,0.0056 0.0038,0.0037 0.0057,0.0094 0.0057,0.017 0,0.0102 -0.0029,0.0187 -0.0087,0.0255 -0.0058,0.0069 -0.0135,0.0102 -0.0233,0.0102 -0.0066,0 -0.0119,-0.0019 -0.0158,-0.0056 -0.0039,-0.0038 -0.0058,-0.0093 -0.0058,-0.0166zm0.2407 -0.2252c0.0133,0 0.0251,0.0036 0.0355,0.0107 0.0103,0.0072 0.0185,0.0174 0.0242,0.0308l0.0024 0 0.0145 -0.0371 0.0274 0 -0.0503 0.2367 -0.0288 0 0.0056 -0.0451 -0.0017 0c-0.0258,0.033 -0.053,0.0495 -0.0815,0.0495 -0.02,0 -0.0357,-0.0072 -0.0471,-0.0214 -0.0114,-0.0143 -0.0171,-0.0338 -0.0171,-0.0586 0,-0.0299 0.0051,-0.0577 0.0153,-0.0834 0.0102,-0.0257 0.0243,-0.0458 0.0423,-0.0603 0.0181,-0.0145 0.0378,-0.0218 0.0592,-0.0218zm-0.0411 0.2155c0.014,0 0.0279,-0.0066 0.0417,-0.02 0.0138,-0.0133 0.0251,-0.0307 0.0337,-0.0521 0.0086,-0.0214 0.013,-0.0428 0.013,-0.0643 0,-0.0148 -0.0041,-0.0266 -0.0121,-0.0354 -0.0081,-0.0088 -0.0186,-0.0132 -0.0318,-0.0132 -0.015,0 -0.0289,0.0062 -0.0418,0.0186 -0.0129,0.0124 -0.023,0.0291 -0.0304,0.0504 -0.0073,0.0212 -0.011,0.0435 -0.011,0.067 0,0.0164 0.0034,0.0287 0.0102,0.0368 0.0068,0.0082 0.0162,0.0122 0.0285,0.0122zm0.3034 0.0257l0.032 -0.1495c0.0026,-0.0136 0.0038,-0.0232 0.0038,-0.0292 0,-0.01 -0.0022,-0.0179 -0.0066,-0.0235 -0.0045,-0.0056 -0.0121,-0.0084 -0.0229,-0.0084 -0.0121,0 -0.0239,0.0044 -0.0353,0.013 -0.0114,0.0086 -0.0215,0.0209 -0.0302,0.037 -0.0087,0.0161 -0.0155,0.0354 -0.0202,0.058l-0.0218 0.1026 -0.0363 0 0.0505 -0.2367 0.0301 0 -0.0048 0.0437 0.0021 0c0.0125,-0.0171 0.0251,-0.0294 0.0375,-0.0369 0.0125,-0.0074 0.0253,-0.0112 0.0386,-0.0112 0.0162,0 0.0288,0.0046 0.0375,0.014 0.0088,0.0093 0.014,0.0224 0.0156,0.0391l0.0018 0c0.0124,-0.018 0.0256,-0.0314 0.0395,-0.0401 0.0139,-0.0087 0.0281,-0.013 0.0423,-0.013 0.0183,0 0.0325,0.0049 0.0425,0.0147 0.01,0.0098 0.015,0.0241 0.015,0.0428 0,0.0098 -0.0016,0.0226 -0.0048,0.0385l-0.0311 0.1452 -0.0367 0 0.032 -0.1495c0.0029,-0.015 0.0043,-0.0255 0.0043,-0.0316 0,-0.0089 -0.0024,-0.0161 -0.0074,-0.0214 -0.0049,-0.0054 -0.0128,-0.0081 -0.0234,-0.0081 -0.0117,0 -0.0232,0.0042 -0.0345,0.0125 -0.0114,0.0083 -0.0214,0.0202 -0.0299,0.0355 -0.0086,0.0154 -0.0151,0.0335 -0.0195,0.0545l-0.0232 0.1081 -0.0363 0zm0.3736 -0.2412c0.0133,0 0.0251,0.0036 0.0355,0.0107 0.0103,0.0072 0.0184,0.0174 0.0242,0.0308l0.0023 0 0.0145 -0.0371 0.0274 0 -0.0503 0.2367 -0.0288 0 0.0056 -0.0451 -0.0017 0c-0.0258,0.033 -0.0529,0.0495 -0.0815,0.0495 -0.02,0 -0.0357,-0.0072 -0.0471,-0.0214 -0.0114,-0.0143 -0.0171,-0.0338 -0.0171,-0.0586 0,-0.0299 0.0051,-0.0577 0.0153,-0.0834 0.0102,-0.0257 0.0243,-0.0458 0.0423,-0.0603 0.0181,-0.0145 0.0378,-0.0218 0.0592,-0.0218zm-0.0411 0.2155c0.014,0 0.0279,-0.0066 0.0417,-0.02 0.0138,-0.0133 0.0251,-0.0307 0.0337,-0.0521 0.0086,-0.0214 0.013,-0.0428 0.013,-0.0643 0,-0.0148 -0.0041,-0.0266 -0.0121,-0.0354 -0.0081,-0.0088 -0.0187,-0.0132 -0.0318,-0.0132 -0.015,0 -0.0289,0.0062 -0.0418,0.0186 -0.0129,0.0124 -0.023,0.0291 -0.0304,0.0504 -0.0073,0.0212 -0.011,0.0435 -0.011,0.067 0,0.0164 0.0034,0.0287 0.0102,0.0368 0.0068,0.0082 0.0162,0.0122 0.0285,0.0122zm0.3022 0.0257l-0.1554 0 0.0049 -0.0253 0.15 -0.1845 -0.1035 0 0.0058 -0.027 0.142 0 -0.0063 0.0302 -0.1469 0.1795 0.1148 0 -0.0054 0.027zm0.0963 0l-0.0363 0 0.0505 -0.2367 0.0364 0 -0.0506 0.2367zm0.0244 -0.2974c0,-0.0081 0.0023,-0.0147 0.0069,-0.0198 0.0046,-0.0051 0.0106,-0.0077 0.0179,-0.0077 0.0127,0 0.019,0.0065 0.019,0.0195 0,0.0079 -0.0024,0.0146 -0.0072,0.0201 -0.0049,0.0055 -0.0104,0.0082 -0.0167,0.0082 -0.0057,0 -0.0105,-0.0017 -0.0143,-0.0052 -0.0038,-0.0036 -0.0056,-0.0086 -0.0056,-0.015zm0.1964 0.2974l0.0319 -0.1495c0.0029,-0.015 0.0043,-0.0254 0.0043,-0.0311 0,-0.0091 -0.0026,-0.0163 -0.0077,-0.0218 -0.0051,-0.0055 -0.0133,-0.0082 -0.0245,-0.0082 -0.0128,0 -0.0253,0.0044 -0.0375,0.013 -0.0122,0.0086 -0.0229,0.0209 -0.0322,0.0369 -0.0093,0.0159 -0.0164,0.0353 -0.0211,0.0581l-0.0218 0.1026 -0.0363 0 0.0505 -0.2367 0.0301 0 -0.0048 0.0437 0.0021 0c0.0139,-0.0176 0.0272,-0.0299 0.0401,-0.0372 0.0129,-0.0073 0.0263,-0.0109 0.04,-0.0109 0.0183,0 0.0327,0.005 0.0434,0.015 0.0105,0.01 0.0158,0.024 0.0158,0.042 0,0.0114 -0.0016,0.0243 -0.0049,0.0389l-0.0309 0.1452 -0.0367 0zm0.3356 -0.2367l-0.0055 0.0232 -0.0456 0.0052c0.0059,0.0089 0.0088,0.0202 0.0088,0.034 0,0.0275 -0.0083,0.0495 -0.0251,0.0658 -0.0167,0.0164 -0.0392,0.0246 -0.0673,0.0246 -0.0079,0 -0.0139,-0.0006 -0.0181,-0.0017 -0.02,0.0076 -0.03,0.017 -0.03,0.0283 0,0.0059 0.0024,0.0098 0.0072,0.0117 0.0047,0.0019 0.0117,0.0035 0.0207,0.0046l0.0253 0.003c0.026,0.0032 0.045,0.0095 0.0567,0.019 0.0117,0.0095 0.0176,0.0234 0.0176,0.0419 0,0.0265 -0.0105,0.0471 -0.0316,0.0616 -0.021,0.0145 -0.0507,0.0218 -0.0888,0.0218 -0.0279,0 -0.0499,-0.0053 -0.0657,-0.0158 -0.0159,-0.0106 -0.0238,-0.0255 -0.0238,-0.0448 0,-0.0151 0.0052,-0.0282 0.0156,-0.0393 0.0103,-0.0111 0.0271,-0.0205 0.0504,-0.0282 -0.0113,-0.0059 -0.0169,-0.0146 -0.0169,-0.0262 0,-0.0099 0.0037,-0.0184 0.011,-0.0256 0.0074,-0.0071 0.0176,-0.0138 0.0307,-0.02 -0.0091,-0.0046 -0.0164,-0.0114 -0.0222,-0.0204 -0.0057,-0.009 -0.0086,-0.0195 -0.0086,-0.0314 0,-0.0279 0.0085,-0.0508 0.0258,-0.0687 0.0172,-0.0178 0.0392,-0.0268 0.066,-0.0268 0.0112,0 0.0223,0.0015 0.0333,0.0044l0.0802 0zm-0.2301 0.2789c0,0.0111 0.0046,0.0199 0.014,0.0264 0.0093,0.0065 0.0232,0.0097 0.0417,0.0097 0.0263,0 0.0468,-0.0046 0.0615,-0.0137 0.0148,-0.0092 0.0221,-0.0221 0.0221,-0.0389 0,-0.0089 -0.0039,-0.016 -0.0117,-0.0212 -0.0077,-0.0052 -0.021,-0.0088 -0.0398,-0.0108l-0.0344 -0.0035c-0.0172,0.0036 -0.0305,0.01 -0.0397,0.019 -0.0092,0.0091 -0.0138,0.0201 -0.0138,0.0329zm0.06 -0.1891c0,0.0122 0.0032,0.0216 0.0097,0.028 0.0065,0.0064 0.0155,0.0096 0.027,0.0096 0.0113,0 0.0213,-0.003 0.0298,-0.0091 0.0085,-0.006 0.015,-0.0144 0.0195,-0.025 0.0046,-0.0105 0.0069,-0.0221 0.0069,-0.0344 0,-0.0119 -0.0032,-0.0209 -0.0095,-0.0271 -0.0063,-0.0062 -0.0154,-0.0093 -0.0272,-0.0093 -0.0113,0 -0.0211,0.0029 -0.0295,0.0088 -0.0084,0.0058 -0.015,0.0139 -0.0197,0.0244 -0.0046,0.0105 -0.007,0.0218 -0.007,0.0341zm0.3544 0.1217c0.008,0 0.0183,-0.0018 0.0311,-0.0056l0 0.0279c-0.0049,0.0021 -0.0109,0.0038 -0.0181,0.0052 -0.0072,0.0014 -0.013,0.0021 -0.0173,0.0021 -0.018,0 -0.0318,-0.0043 -0.0414,-0.0128 -0.0096,-0.0086 -0.0144,-0.0214 -0.0144,-0.0384 0,-0.0094 0.0012,-0.0203 0.0039,-0.0324l0.0274 -0.1301 -0.0371 0 0.003 -0.0158 0.04 -0.0168 0.027 -0.0493 0.0212 0 -0.0119 0.0544 0.0592 0 -0.0057 0.0274 -0.0589 0 -0.0279 0.1305c-0.0026,0.0125 -0.0039,0.0221 -0.0039,0.0285 0,0.0081 0.0021,0.0143 0.0063,0.0186 0.0042,0.0044 0.01,0.0065 0.0175,0.0065zm0.1971 -0.2146c0.0274,0 0.049,0.0081 0.0648,0.0243 0.0158,0.0162 0.0237,0.0385 0.0237,0.0669 0,0.0271 -0.0052,0.0527 -0.0156,0.0767 -0.0104,0.024 -0.0244,0.0426 -0.0421,0.0557 -0.0177,0.0131 -0.0378,0.0197 -0.0601,0.0197 -0.0277,0 -0.0493,-0.0081 -0.065,-0.0244 -0.0156,-0.0163 -0.0235,-0.0386 -0.0235,-0.0668 0,-0.0274 0.0053,-0.0531 0.0158,-0.0773 0.0105,-0.0241 0.0247,-0.0426 0.0426,-0.0556 0.0178,-0.0129 0.0377,-0.0193 0.0594,-0.0193zm0.051 0.0863c0,-0.0166 -0.0045,-0.03 -0.0135,-0.0403 -0.009,-0.0102 -0.0212,-0.0154 -0.0366,-0.0154 -0.0157,0 -0.0298,0.0053 -0.0423,0.016 -0.0125,0.0106 -0.0221,0.0254 -0.029,0.0444 -0.0069,0.0189 -0.0102,0.04 -0.0102,0.0631 0,0.0189 0.0046,0.0335 0.0137,0.0438 0.0092,0.0102 0.0223,0.0154 0.0395,0.0154 0.015,0 0.0284,-0.0052 0.0404,-0.0158 0.012,-0.0105 0.0212,-0.0255 0.0279,-0.0448 0.0067,-0.0193 0.01,-0.0415 0.01,-0.0664zm0.2707 -0.0832l-0.0324 0.1502c-0.0026,0.0128 -0.0039,0.0228 -0.0039,0.03 0,0.0206 0.0106,0.0309 0.0318,0.0309 0.0127,0 0.0251,-0.0043 0.0374,-0.013 0.0122,-0.0086 0.023,-0.021 0.0324,-0.0372 0.0093,-0.0161 0.0165,-0.0355 0.0214,-0.0583l0.0216 -0.1026 0.0358 0 -0.0499 0.2367 -0.0301 0 0.0048 -0.0437 -0.0026 0c-0.0142,0.018 -0.0276,0.0305 -0.0404,0.0375 -0.0128,0.0071 -0.0261,0.0106 -0.0398,0.0106 -0.0185,0 -0.0329,-0.005 -0.0434,-0.015 -0.0106,-0.01 -0.0158,-0.0242 -0.0158,-0.0428 0,-0.0089 0.0016,-0.0213 0.0048,-0.0372l0.0315 -0.1461 0.0367 0zm0.3155 0.2367l0.0319 -0.1495c0.0029,-0.015 0.0044,-0.0254 0.0044,-0.0311 0,-0.0091 -0.0026,-0.0163 -0.0077,-0.0218 -0.0051,-0.0055 -0.0133,-0.0082 -0.0246,-0.0082 -0.0128,0 -0.0253,0.0044 -0.0375,0.013 -0.0122,0.0086 -0.0229,0.0209 -0.0322,0.0369 -0.0093,0.0159 -0.0164,0.0353 -0.0211,0.0581l-0.0218 0.1026 -0.0363 0 0.0505 -0.2367 0.0301 0 -0.0048 0.0437 0.0021 0c0.0139,-0.0176 0.0272,-0.0299 0.0401,-0.0372 0.0129,-0.0073 0.0262,-0.0109 0.04,-0.0109 0.0183,0 0.0327,0.005 0.0434,0.015 0.0105,0.01 0.0158,0.024 0.0158,0.042 0,0.0114 -0.0016,0.0243 -0.0049,0.0389l-0.0309 0.1452 -0.0367 0zm0.0754 0.1062c-0.0099,0 -0.0189,-0.0015 -0.027,-0.0045l0 -0.0303c0.0092,0.0031 0.0173,0.0047 0.0242,0.0047 0.011,0 0.0194,-0.0045 0.0253,-0.0134 0.0059,-0.0089 0.0107,-0.0217 0.0142,-0.0382l0.0491 -0.2338 -0.0417 0 0.0028 -0.0145 0.0445 -0.0143 0.0049 -0.0216c0.0066,-0.0288 0.0158,-0.0491 0.0276,-0.061 0.0117,-0.0119 0.0291,-0.0178 0.0521,-0.0178 0.0057,0 0.0128,0.0008 0.0212,0.0025 0.0083,0.0016 0.0148,0.0035 0.0195,0.0055l-0.0093 0.0279c-0.011,-0.0042 -0.0208,-0.0063 -0.0296,-0.0063 -0.0125,0 -0.0221,0.0035 -0.0288,0.0105 -0.0066,0.007 -0.0121,0.0198 -0.0163,0.0384l-0.0054 0.0233 0.0514 0 -0.0054 0.0274 -0.0512 0 -0.0501 0.2371c-0.0056,0.0272 -0.0142,0.0471 -0.026,0.0596 -0.0117,0.0125 -0.027,0.0188 -0.046,0.0188zm0.2999 -0.346c0.0274,0 0.049,0.0081 0.0648,0.0243 0.0158,0.0162 0.0237,0.0385 0.0237,0.0669 0,0.0271 -0.0052,0.0527 -0.0156,0.0767 -0.0104,0.024 -0.0244,0.0426 -0.0421,0.0557 -0.0177,0.0131 -0.0378,0.0197 -0.0601,0.0197 -0.0277,0 -0.0493,-0.0081 -0.065,-0.0244 -0.0156,-0.0163 -0.0235,-0.0386 -0.0235,-0.0668 0,-0.0274 0.0052,-0.0531 0.0158,-0.0773 0.0105,-0.0241 0.0247,-0.0426 0.0426,-0.0556 0.0178,-0.0129 0.0377,-0.0193 0.0594,-0.0193zm0.051 0.0863c0,-0.0166 -0.0045,-0.03 -0.0135,-0.0403 -0.009,-0.0102 -0.0212,-0.0154 -0.0366,-0.0154 -0.0157,0 -0.0298,0.0053 -0.0423,0.016 -0.0125,0.0106 -0.0221,0.0254 -0.029,0.0444 -0.0069,0.0189 -0.0103,0.04 -0.0103,0.0631 0,0.0189 0.0046,0.0335 0.0137,0.0438 0.0092,0.0102 0.0223,0.0154 0.0395,0.0154 0.015,0 0.0284,-0.0052 0.0404,-0.0158 0.012,-0.0105 0.0212,-0.0255 0.0279,-0.0448 0.0067,-0.0193 0.01,-0.0415 0.01,-0.0664zm0.2208 -0.0876c0.01,0 0.0186,0.001 0.026,0.003l-0.0078 0.0325c-0.0076,-0.0018 -0.0152,-0.0028 -0.0226,-0.0028 -0.0131,0 -0.0254,0.0044 -0.0369,0.013 -0.0114,0.0086 -0.0215,0.0206 -0.03,0.0359 -0.0086,0.0153 -0.0149,0.0324 -0.0189,0.0511l-0.0232 0.1084 -0.0363 0 0.0505 -0.2367 0.0301 0 -0.0048 0.0437 0.0021 0c0.0104,-0.0136 0.019,-0.0234 0.0258,-0.0295 0.0068,-0.006 0.0139,-0.0106 0.0213,-0.0138 0.0074,-0.0032 0.0157,-0.0049 0.0247,-0.0049zm0.2504 0.0044l-0.0055 0.0232 -0.0456 0.0052c0.0059,0.0089 0.0089,0.0202 0.0089,0.034 0,0.0275 -0.0083,0.0495 -0.0251,0.0658 -0.0167,0.0164 -0.0392,0.0246 -0.0674,0.0246 -0.0079,0 -0.0139,-0.0006 -0.0181,-0.0017 -0.02,0.0076 -0.03,0.017 -0.03,0.0283 0,0.0059 0.0024,0.0098 0.0072,0.0117 0.0047,0.0019 0.0117,0.0035 0.0207,0.0046l0.0253 0.003c0.026,0.0032 0.045,0.0095 0.0567,0.019 0.0117,0.0095 0.0176,0.0234 0.0176,0.0419 0,0.0265 -0.0105,0.0471 -0.0315,0.0616 -0.021,0.0145 -0.0507,0.0218 -0.0888,0.0218 -0.0279,0 -0.0499,-0.0053 -0.0657,-0.0158 -0.0159,-0.0106 -0.0238,-0.0255 -0.0238,-0.0448 0,-0.0151 0.0052,-0.0282 0.0156,-0.0393 0.0103,-0.0111 0.0271,-0.0205 0.0504,-0.0282 -0.0113,-0.0059 -0.0169,-0.0146 -0.0169,-0.0262 0,-0.0099 0.0037,-0.0184 0.011,-0.0256 0.0074,-0.0071 0.0176,-0.0138 0.0307,-0.02 -0.0091,-0.0046 -0.0165,-0.0114 -0.0222,-0.0204 -0.0058,-0.009 -0.0086,-0.0195 -0.0086,-0.0314 0,-0.0279 0.0086,-0.0508 0.0258,-0.0687 0.0172,-0.0178 0.0392,-0.0268 0.066,-0.0268 0.0112,0 0.0223,0.0015 0.0333,0.0044l0.0802 0zm-0.2301 0.2789c0,0.0111 0.0046,0.0199 0.014,0.0264 0.0094,0.0065 0.0232,0.0097 0.0417,0.0097 0.0262,0 0.0467,-0.0046 0.0615,-0.0137 0.0148,-0.0092 0.0221,-0.0221 0.0221,-0.0389 0,-0.0089 -0.0039,-0.016 -0.0117,-0.0212 -0.0077,-0.0052 -0.021,-0.0088 -0.0398,-0.0108l-0.0343 -0.0035c-0.0173,0.0036 -0.0305,0.01 -0.0398,0.019 -0.0092,0.0091 -0.0138,0.0201 -0.0138,0.0329zm0.06 -0.1891c0,0.0122 0.0033,0.0216 0.0097,0.028 0.0065,0.0064 0.0155,0.0096 0.027,0.0096 0.0114,0 0.0213,-0.003 0.0298,-0.0091 0.0085,-0.006 0.015,-0.0144 0.0195,-0.025 0.0046,-0.0105 0.0068,-0.0221 0.0068,-0.0344 0,-0.0119 -0.0032,-0.0209 -0.0095,-0.0271 -0.0064,-0.0062 -0.0154,-0.0093 -0.0272,-0.0093 -0.0113,0 -0.0211,0.0029 -0.0295,0.0088 -0.0084,0.0058 -0.015,0.0139 -0.0197,0.0244 -0.0046,0.0105 -0.007,0.0218 -0.007,0.0341zm0.2604 0.1513c-0.0265,0 -0.0473,-0.0079 -0.0624,-0.0236 -0.0151,-0.0157 -0.0227,-0.0375 -0.0227,-0.0653 0,-0.0271 0.0054,-0.053 0.0161,-0.0779 0.0108,-0.0249 0.025,-0.0442 0.0427,-0.0581 0.0177,-0.0138 0.0372,-0.0207 0.0585,-0.0207 0.0221,0 0.0386,0.0048 0.0497,0.0144 0.0111,0.0096 0.0166,0.0229 0.0166,0.04 0,0.026 -0.012,0.0463 -0.0359,0.0611 -0.0239,0.0148 -0.0581,0.0221 -0.1027,0.0221l-0.0071 0 -0.0009 0.0173c0,0.0189 0.0044,0.0336 0.0133,0.0442 0.0088,0.0106 0.0226,0.0159 0.0411,0.0159 0.0091,0 0.0184,-0.0013 0.028,-0.0039 0.0096,-0.0026 0.0215,-0.0073 0.0358,-0.0142l0 0.0315c-0.0136,0.0064 -0.0255,0.0108 -0.0359,0.0134 -0.0103,0.0025 -0.0218,0.0037 -0.0343,0.0037zm0.0301 -0.2146c-0.0149,0 -0.0288,0.0068 -0.0418,0.0203 -0.013,0.0135 -0.023,0.0322 -0.0299,0.0563l0.0026 0c0.0328,0 0.058,-0.0043 0.0755,-0.0128 0.0175,-0.0085 0.0262,-0.0209 0.0262,-0.0372 0,-0.0077 -0.0027,-0.0139 -0.0079,-0.019 -0.0052,-0.005 -0.0135,-0.0075 -0.0247,-0.0075zm0.1672 0.1849c0.008,0 0.0183,-0.0018 0.0311,-0.0056l0 0.0279c-0.0049,0.0021 -0.0109,0.0038 -0.0181,0.0052 -0.0072,0.0014 -0.013,0.0021 -0.0173,0.0021 -0.018,0 -0.0318,-0.0043 -0.0414,-0.0128 -0.0096,-0.0086 -0.0144,-0.0214 -0.0144,-0.0384 0,-0.0094 0.0013,-0.0203 0.0039,-0.0324l0.0274 -0.1301 -0.0372 0 0.003 -0.0158 0.04 -0.0168 0.027 -0.0493 0.0212 0 -0.0119 0.0544 0.0592 0 -0.0057 0.0274 -0.0589 0 -0.0279 0.1305c-0.0026,0.0125 -0.0039,0.0221 -0.0039,0.0285 0,0.0081 0.0021,0.0143 0.0063,0.0186 0.0042,0.0044 0.01,0.0065 0.0175,0.0065zm0.1435 0c0.008,0 0.0183,-0.0018 0.0311,-0.0056l0 0.0279c-0.0049,0.0021 -0.0109,0.0038 -0.0181,0.0052 -0.0072,0.0014 -0.013,0.0021 -0.0173,0.0021 -0.018,0 -0.0318,-0.0043 -0.0414,-0.0128 -0.0096,-0.0086 -0.0144,-0.0214 -0.0144,-0.0384 0,-0.0094 0.0012,-0.0203 0.0039,-0.0324l0.0274 -0.1301 -0.0372 0 0.003 -0.0158 0.0399 -0.0168 0.027 -0.0493 0.0212 0 -0.0119 0.0544 0.0592 0 -0.0057 0.0274 -0.0589 0 -0.0279 0.1305c-0.0026,0.0125 -0.0039,0.0221 -0.0039,0.0285 0,0.0081 0.0021,0.0143 0.0063,0.0186 0.0042,0.0044 0.01,0.0065 0.0175,0.0065zm0.1962 -0.2159c0.0133,0 0.0251,0.0036 0.0355,0.0107 0.0103,0.0072 0.0185,0.0174 0.0242,0.0308l0.0024 0 0.0145 -0.0371 0.0274 0 -0.0503 0.2367 -0.0288 0 0.0056 -0.0451 -0.0017 0c-0.0258,0.033 -0.053,0.0495 -0.0815,0.0495 -0.02,0 -0.0357,-0.0072 -0.0471,-0.0214 -0.0114,-0.0143 -0.0171,-0.0338 -0.0171,-0.0586 0,-0.0299 0.0051,-0.0577 0.0153,-0.0834 0.0103,-0.0257 0.0243,-0.0458 0.0423,-0.0603 0.0181,-0.0145 0.0378,-0.0218 0.0592,-0.0218zm-0.0411 0.2155c0.014,0 0.0279,-0.0066 0.0417,-0.02 0.0138,-0.0133 0.0251,-0.0307 0.0337,-0.0521 0.0086,-0.0214 0.013,-0.0428 0.013,-0.0643 0,-0.0148 -0.004,-0.0266 -0.0121,-0.0354 -0.0081,-0.0088 -0.0186,-0.0132 -0.0318,-0.0132 -0.015,0 -0.0289,0.0062 -0.0418,0.0186 -0.0129,0.0124 -0.023,0.0291 -0.0304,0.0504 -0.0073,0.0212 -0.011,0.0435 -0.011,0.067 0,0.0164 0.0034,0.0287 0.0102,0.0368 0.0068,0.0082 0.0162,0.0122 0.0285,0.0122zm0.2708 0.0301c-0.014,0 -0.0262,-0.0037 -0.0369,-0.011 -0.0105,-0.0074 -0.0185,-0.0174 -0.0239,-0.0301l-0.0021 0 -0.0151 0.0367 -0.027 0 0.0713 -0.3363 0.0363 0c-0.0074,0.0349 -0.013,0.0616 -0.017,0.0801 -0.004,0.0185 -0.0094,0.0402 -0.0163,0.065l0.0019 0c0.0134,-0.017 0.0266,-0.0295 0.0397,-0.0375 0.013,-0.008 0.0265,-0.012 0.0403,-0.012 0.0203,0 0.0361,0.0072 0.0476,0.0214 0.0113,0.0143 0.017,0.0338 0.017,0.0588 0,0.0302 -0.0049,0.058 -0.0148,0.0836 -0.0098,0.0256 -0.0236,0.0456 -0.0412,0.0599 -0.0176,0.0144 -0.0376,0.0215 -0.0597,0.0215zm0.0402 -0.2151c-0.0139,0 -0.0279,0.0069 -0.0423,0.0205 -0.0143,0.0137 -0.0257,0.0309 -0.0341,0.0517 -0.0084,0.0207 -0.0126,0.042 -0.0126,0.0637 0,0.0158 0.004,0.0279 0.0119,0.0364 0.0081,0.0084 0.0195,0.0126 0.0347,0.0126 0.0143,0 0.0276,-0.0058 0.0399,-0.0175 0.0123,-0.0117 0.0222,-0.0283 0.0297,-0.0499 0.0074,-0.0215 0.0112,-0.0444 0.0112,-0.0686 0,-0.0327 -0.0129,-0.0491 -0.0384,-0.0491zm0.146 0.2106l-0.0363 0 0.0718 -0.3363 0.0363 0 -0.0717 0.3363zm0.17 0.0044c-0.0265,0 -0.0473,-0.0079 -0.0624,-0.0236 -0.0151,-0.0157 -0.0227,-0.0375 -0.0227,-0.0653 0,-0.0271 0.0054,-0.053 0.0161,-0.0779 0.0108,-0.0249 0.025,-0.0442 0.0427,-0.0581 0.0177,-0.0138 0.0372,-0.0207 0.0585,-0.0207 0.0221,0 0.0386,0.0048 0.0497,0.0144 0.0111,0.0096 0.0166,0.0229 0.0166,0.04 0,0.026 -0.012,0.0463 -0.0359,0.0611 -0.0239,0.0148 -0.0581,0.0221 -0.1027,0.0221l-0.0071 0 -0.0009 0.0173c0,0.0189 0.0044,0.0336 0.0133,0.0442 0.0088,0.0106 0.0226,0.0159 0.0411,0.0159 0.0091,0 0.0185,-0.0013 0.028,-0.0039 0.0096,-0.0026 0.0215,-0.0073 0.0358,-0.0142l0 0.0315c-0.0136,0.0064 -0.0255,0.0108 -0.0359,0.0134 -0.0103,0.0025 -0.0218,0.0037 -0.0343,0.0037zm0.0301 -0.2146c-0.0149,0 -0.0288,0.0068 -0.0418,0.0203 -0.013,0.0135 -0.023,0.0322 -0.0299,0.0563l0.0026 0c0.0328,0 0.058,-0.0043 0.0755,-0.0128 0.0175,-0.0085 0.0262,-0.0209 0.0262,-0.0372 0,-0.0077 -0.0027,-0.0139 -0.0079,-0.019 -0.0052,-0.005 -0.0135,-0.0075 -0.0247,-0.0075zm0.0912 0.1942c0,-0.0111 0.0029,-0.0198 0.0088,-0.0264 0.0058,-0.0066 0.0139,-0.0098 0.024,-0.0098 0.0062,0 0.0112,0.0018 0.015,0.0056 0.0038,0.0037 0.0057,0.0094 0.0057,0.017 0,0.0102 -0.0029,0.0187 -0.0087,0.0255 -0.0057,0.0069 -0.0135,0.0102 -0.0233,0.0102 -0.0066,0 -0.0119,-0.0019 -0.0158,-0.0056 -0.0039,-0.0038 -0.0058,-0.0093 -0.0058,-0.0166zm0.112 0c0,-0.0111 0.0029,-0.0198 0.0088,-0.0264 0.0058,-0.0066 0.0139,-0.0098 0.0241,-0.0098 0.0062,0 0.0112,0.0018 0.015,0.0056 0.0038,0.0037 0.0057,0.0094 0.0057,0.017 0,0.0102 -0.0029,0.0187 -0.0087,0.0255 -0.0058,0.0069 -0.0135,0.0102 -0.0233,0.0102 -0.0066,0 -0.0119,-0.0019 -0.0158,-0.0056 -0.0039,-0.0038 -0.0058,-0.0093 -0.0058,-0.0166zm0.2226 -0.2999l-0.0592 0.2288 -0.0235 0c0.0071,-0.0443 0.0197,-0.1205 0.0381,-0.2288l0.0447 0zm-0.1106 0.2991c0,-0.0109 0.0029,-0.0195 0.0086,-0.0258 0.0057,-0.0064 0.0134,-0.0095 0.0232,-0.0095 0.0065,0 0.0117,0.002 0.0158,0.0059 0.004,0.004 0.0061,0.0098 0.0061,0.0176 0,0.0097 -0.0029,0.018 -0.0085,0.0248 -0.0056,0.0067 -0.0131,0.0101 -0.0226,0.0101 -0.0071,0 -0.0126,-0.002 -0.0165,-0.006 -0.004,-0.004 -0.006,-0.0097 -0.006,-0.017zm0.2252 -0.2991l-0.0592 0.2288 -0.0235 0c0.0071,-0.0443 0.0197,-0.1205 0.0381,-0.2288l0.0447 0zm-0.1106 0.2991c0,-0.0109 0.0029,-0.0195 0.0086,-0.0258 0.0057,-0.0064 0.0134,-0.0095 0.0232,-0.0095 0.0065,0 0.0117,0.002 0.0158,0.0059 0.004,0.004 0.0061,0.0098 0.0061,0.0176 0,0.0097 -0.0029,0.018 -0.0085,0.0248 -0.0056,0.0067 -0.0131,0.0101 -0.0226,0.0101 -0.0071,0 -0.0126,-0.002 -0.0165,-0.006 -0.004,-0.004 -0.006,-0.0097 -0.006,-0.017z"/>
  </g>
 </g>
</svg>
